<svg width="63" height="14" viewBox="0 0 63 14" fill="none" xmlns="http://www.w3.org/2000/svg">
<path d="M4.18 3.58C4.87067 3.58 5.496 3.73867 6.056 4.056C6.616 4.364 7.05467 4.80267 7.372 5.372C7.68933 5.94133 7.848 6.59 7.848 7.318C7.848 8.05533 7.68933 8.70867 7.372 9.278C7.05467 9.84733 6.616 10.2907 6.056 10.608C5.50533 10.916 4.88 11.07 4.18 11.07C3.58267 11.07 3.04133 10.9487 2.556 10.706C2.08 10.454 1.688 10.09 1.38 9.614V13.716H0.386V3.636H1.338V5.092C1.63667 4.60667 2.02867 4.23333 2.514 3.972C3.00867 3.71067 3.564 3.58 4.18 3.58ZM4.11 10.188C4.62333 10.188 5.09 10.0713 5.51 9.838C5.93 9.59533 6.25667 9.25467 6.49 8.816C6.73267 8.37733 6.854 7.878 6.854 7.318C6.854 6.758 6.73267 6.26333 6.49 5.834C6.25667 5.39533 5.93 5.05467 5.51 4.812C5.09 4.56933 4.62333 4.448 4.11 4.448C3.58733 4.448 3.116 4.56933 2.696 4.812C2.28533 5.05467 1.95867 5.39533 1.716 5.834C1.48267 6.26333 1.366 6.758 1.366 7.318C1.366 7.878 1.48267 8.37733 1.716 8.816C1.95867 9.25467 2.28533 9.59533 2.696 9.838C3.116 10.0713 3.58733 10.188 4.11 10.188ZM10.8263 5.078C11.0596 4.58333 11.4049 4.21 11.8623 3.958C12.3289 3.706 12.9029 3.58 13.5843 3.58V4.546L13.3463 4.532C12.5716 4.532 11.9649 4.77 11.5263 5.246C11.0876 5.722 10.8683 6.38933 10.8683 7.248V11H9.87428V3.636H10.8263V5.078ZM18.3257 11.07C17.6164 11.07 16.977 10.9113 16.4077 10.594C15.8384 10.2673 15.3904 9.81933 15.0637 9.25C14.737 8.68067 14.5737 8.03667 14.5737 7.318C14.5737 6.59933 14.737 5.95533 15.0637 5.386C15.3904 4.81667 15.8384 4.37333 16.4077 4.056C16.977 3.73867 17.6164 3.58 18.3257 3.58C19.035 3.58 19.6744 3.73867 20.2437 4.056C20.813 4.37333 21.2564 4.81667 21.5737 5.386C21.9004 5.95533 22.0637 6.59933 22.0637 7.318C22.0637 8.03667 21.9004 8.68067 21.5737 9.25C21.2564 9.81933 20.813 10.2673 20.2437 10.594C19.6744 10.9113 19.035 11.07 18.3257 11.07ZM18.3257 10.188C18.8484 10.188 19.315 10.0713 19.7257 9.838C20.1457 9.59533 20.4724 9.25467 20.7057 8.816C20.939 8.37733 21.0557 7.878 21.0557 7.318C21.0557 6.758 20.939 6.25867 20.7057 5.82C20.4724 5.38133 20.1457 5.04533 19.7257 4.812C19.315 4.56933 18.8484 4.448 18.3257 4.448C17.803 4.448 17.3317 4.56933 16.9117 4.812C16.501 5.04533 16.1744 5.38133 15.9317 5.82C15.6984 6.25867 15.5817 6.758 15.5817 7.318C15.5817 7.878 15.6984 8.37733 15.9317 8.816C16.1744 9.25467 16.501 9.59533 16.9117 9.838C17.3317 10.0713 17.803 10.188 18.3257 10.188ZM26.529 1.382C26.0997 1.382 25.773 1.49867 25.549 1.732C25.3344 1.96533 25.227 2.31067 25.227 2.768V3.636H27.495V4.476H25.255V11H24.261V4.476H22.945V3.636H24.261V2.726C24.261 2.054 24.4524 1.522 24.835 1.13C25.227 0.737999 25.7777 0.541999 26.487 0.541999C26.767 0.541999 27.0377 0.583999 27.299 0.668C27.5604 0.742666 27.7797 0.854666 27.957 1.004L27.621 1.746C27.3317 1.50333 26.9677 1.382 26.529 1.382ZM35.1619 3.636L31.4799 11.882C31.1812 12.5727 30.8359 13.0627 30.4439 13.352C30.0519 13.6413 29.5806 13.786 29.0299 13.786C28.6752 13.786 28.3439 13.73 28.0359 13.618C27.7279 13.506 27.4619 13.338 27.2379 13.114L27.6999 12.372C28.0732 12.7453 28.5212 12.932 29.0439 12.932C29.3799 12.932 29.6646 12.8387 29.8979 12.652C30.1406 12.4653 30.3646 12.148 30.5699 11.7L30.8919 10.986L27.6019 3.636H28.6379L31.4099 9.894L34.1819 3.636H35.1619ZM36.1813 11.07C35.9759 11.07 35.7986 10.9953 35.6493 10.846C35.5093 10.6967 35.4393 10.5147 35.4393 10.3C35.4393 10.0853 35.5093 9.908 35.6493 9.768C35.7986 9.61867 35.9759 9.544 36.1813 9.544C36.3866 9.544 36.5639 9.61867 36.7133 9.768C36.8626 9.908 36.9373 10.0853 36.9373 10.3C36.9373 10.5147 36.8626 10.6967 36.7133 10.846C36.5639 10.9953 36.3866 11.07 36.1813 11.07ZM45.565 0.611999V11H44.613V9.544C44.3143 10.0387 43.9177 10.4167 43.423 10.678C42.9377 10.9393 42.387 11.07 41.771 11.07C41.0803 11.07 40.455 10.9113 39.895 10.594C39.335 10.2767 38.8963 9.83333 38.579 9.264C38.2617 8.69467 38.103 8.046 38.103 7.318C38.103 6.59 38.2617 5.94133 38.579 5.372C38.8963 4.80267 39.335 4.364 39.895 4.056C40.455 3.73867 41.0803 3.58 41.771 3.58C42.3683 3.58 42.905 3.706 43.381 3.958C43.8663 4.20067 44.263 4.56 44.571 5.036V0.611999H45.565ZM41.855 10.188C42.3683 10.188 42.8303 10.0713 43.241 9.838C43.661 9.59533 43.9877 9.25467 44.221 8.816C44.4637 8.37733 44.585 7.878 44.585 7.318C44.585 6.758 44.4637 6.25867 44.221 5.82C43.9877 5.38133 43.661 5.04533 43.241 4.812C42.8303 4.56933 42.3683 4.448 41.855 4.448C41.3323 4.448 40.861 4.56933 40.441 4.812C40.0303 5.04533 39.7037 5.38133 39.461 5.82C39.2277 6.25867 39.111 6.758 39.111 7.318C39.111 7.878 39.2277 8.37733 39.461 8.816C39.7037 9.25467 40.0303 9.59533 40.441 9.838C40.861 10.0713 41.3323 10.188 41.855 10.188ZM54.7453 7.626H48.5853C48.6413 8.39133 48.9353 9.012 49.4673 9.488C49.9993 9.95467 50.6713 10.188 51.4833 10.188C51.9406 10.188 52.3606 10.1087 52.7433 9.95C53.1259 9.782 53.4573 9.53933 53.7373 9.222L54.2973 9.866C53.9706 10.258 53.5599 10.5567 53.0653 10.762C52.5799 10.9673 52.0433 11.07 51.4553 11.07C50.6993 11.07 50.0273 10.9113 49.4393 10.594C48.8606 10.2673 48.4079 9.81933 48.0813 9.25C47.7546 8.68067 47.5913 8.03667 47.5913 7.318C47.5913 6.59933 47.7453 5.95533 48.0533 5.386C48.3706 4.81667 48.7999 4.37333 49.3413 4.056C49.8919 3.73867 50.5079 3.58 51.1893 3.58C51.8706 3.58 52.4819 3.73867 53.0233 4.056C53.5646 4.37333 53.9893 4.81667 54.2973 5.386C54.6053 5.946 54.7593 6.59 54.7593 7.318L54.7453 7.626ZM51.1893 4.434C50.4799 4.434 49.8826 4.66267 49.3973 5.12C48.9213 5.568 48.6506 6.156 48.5853 6.884H53.8073C53.7419 6.156 53.4666 5.568 52.9813 5.12C52.5053 4.66267 51.9079 4.434 51.1893 4.434ZM62.8338 3.636L59.5578 11H58.5358L55.2738 3.636H56.3098L59.0678 9.908L61.8538 3.636H62.8338Z" fill="#636363"/>
</svg>
